<svg version="1.1" viewBox="0.0 0.0 600.0 371.0" fill="none" stroke="none" stroke-linecap="square" stroke-miterlimit="10" width="600" height="371" xmlns:xlink="http://www.w3.org/1999/xlink" xmlns="http://www.w3.org/2000/svg"><path fill="#ffffff" d="M0 0L600.0 0L600.0 371.0L0 371.0L0 0Z" fill-rule="nonzero"/><path fill="#fbbc04" d="M194.47212 98.82443C222.398 70.720406 260.38068 54.916668 300.0 54.916668L300.0 203.68333Z" fill-rule="nonzero"/><path fill="#ea4335" d="M156.76111 163.50696C163.61147 139.08371 176.59294 116.81769 194.47212 98.82443L300.0 203.68333Z" fill-rule="nonzero"/><path fill="#4285f4" d="M300.0 54.916668C363.89224 54.916668 420.64938 95.71358 441.01044 156.27467C461.3715 216.83575 440.78885 283.63483 389.87384 322.2338C338.95883 360.83276 269.08325 362.61066 216.27121 326.65085C163.45918 290.69107 139.50618 225.02513 156.76111 163.50696L300.0 203.68333Z" fill-rule="nonzero"/><path fill="#1a1a1a" d="M19.128124 64.51163Q19.128124 62.371002 20.26875 61.167877Q21.425 59.949127 23.2375 59.949127Q24.440624 59.949127 25.39375 60.527252Q26.346874 61.089752 26.846874 62.105377Q27.346874 63.121002 27.346874 64.41788Q27.346874 65.71475 26.815624 66.746Q26.284374 67.77725 25.315624 68.3085Q24.3625 68.83975 23.2375 68.83975Q22.01875 68.83975 21.065624 68.26163Q20.1125 67.66788 19.6125 66.66788Q19.128124 65.65225 19.128124 64.51163ZM20.3 64.52725Q20.3 66.08975 21.128124 66.98038Q21.971874 67.871 23.2375 67.871Q24.51875 67.871 25.346874 66.98038Q26.175 66.07413 26.175 64.40225Q26.175 63.355377 25.815624 62.574127Q25.471874 61.792877 24.784374 61.371002Q24.096874 60.933502 23.253124 60.933502Q22.05 60.933502 21.175 61.761627Q20.3 62.589752 20.3 64.52725ZM30.64375 67.76163L30.8 68.6835Q30.346874 68.77725 30.003124 68.77725Q29.425 68.77725 29.1125 68.60538Q28.8 68.41788 28.659374 68.121Q28.534374 67.82413 28.534374 66.871L28.534374 63.292877L27.76875 63.292877L27.76875 62.480377L28.534374 62.480377L28.534374 60.933502L29.58125 60.308502L29.58125 62.480377L30.64375 62.480377L30.64375 63.292877L29.58125 63.292877L29.58125 66.9335Q29.58125 67.38663 29.628124 67.51163Q29.690624 67.63663 29.815624 67.71475Q29.940624 67.79288 30.175 67.79288Q30.3625 67.79288 30.64375 67.76163ZM31.346874 68.69913L31.346874 60.105377L32.39375 60.105377L32.39375 63.183502Q33.128124 62.339752 34.253124 62.339752Q34.95625 62.339752 35.45625 62.621002Q35.971874 62.886627 36.190624 63.371002Q36.409374 63.839752 36.409374 64.76163L36.409374 68.69913L35.3625 68.69913L35.3625 64.76163Q35.3625 63.964752 35.01875 63.605377Q34.675 63.246002 34.05 63.246002Q33.58125 63.246002 33.159374 63.496002Q32.753124 63.730377 32.565624 64.15225Q32.39375 64.5585 32.39375 65.29288L32.39375 68.69913L31.346874 68.69913ZM42.596874 66.69913L43.690624 66.82413Q43.440624 67.77725 42.7375 68.3085Q42.034374 68.83975 40.95625 68.83975Q39.596874 68.83975 38.784374 67.996Q37.9875 67.15225 37.9875 65.63663Q37.9875 64.07413 38.8 63.214752Q39.6125 62.339752 40.89375 62.339752Q42.14375 62.339752 42.925 63.183502Q43.721874 64.02725 43.721874 65.57413Q43.721874 65.66788 43.721874 65.85538L39.08125 65.85538Q39.14375 66.88663 39.659374 67.4335Q40.175 67.96475 40.95625 67.96475Q41.534374 67.96475 41.940624 67.66788Q42.3625 67.35538 42.596874 66.69913ZM39.14375 64.996L42.6125 64.996Q42.55 64.19913 42.221874 63.808502Q41.70625 63.199127 40.909374 63.199127Q40.175 63.199127 39.675 63.683502Q39.190624 64.16788 39.14375 64.996ZM45.33125 68.69913L45.33125 62.480377L46.284374 62.480377L46.284374 63.417877Q46.64375 62.761627 46.940624 62.558502Q47.253124 62.339752 47.628124 62.339752Q48.159374 62.339752 48.70625 62.667877L48.346874 63.652252Q47.95625 63.417877 47.58125 63.417877Q47.221874 63.417877 46.940624 63.636627Q46.675 63.839752 46.565624 64.21475Q46.378124 64.77725 46.378124 65.4335L46.378124 68.69913L45.33125 68.69913Z" fill-rule="nonzero"/><path fill="#9e9e9e" d="M23.01875 85.69913L21.971874 85.69913L21.971874 78.98038Q21.58125 79.33975 20.95625 79.71475Q20.346874 80.07413 19.8625 80.246L19.8625 79.23038Q20.7375 78.8085 21.39375 78.23038Q22.065624 77.63663 22.346874 77.07413L23.01875 77.07413L23.01875 85.69913ZM31.596874 84.6835L31.596874 85.69913L25.909374 85.69913Q25.909374 85.32413 26.034374 84.96475Q26.253124 84.38663 26.721874 83.82413Q27.20625 83.26163 28.1125 82.52725Q29.51875 81.371 30.003124 80.69913Q30.503124 80.02725 30.503124 79.4335Q30.503124 78.8085 30.05 78.38663Q29.596874 77.94913 28.878124 77.94913Q28.1125 77.94913 27.659374 78.40225Q27.20625 78.85538 27.190624 79.66788L26.1125 79.5585Q26.221874 78.33975 26.940624 77.71475Q27.675 77.07413 28.909374 77.07413Q30.14375 77.07413 30.8625 77.76163Q31.58125 78.44913 31.58125 79.46475Q31.58125 79.98038 31.3625 80.48038Q31.159374 80.96475 30.659374 81.52725Q30.175 82.07413 29.05 83.02725Q28.096874 83.82413 27.815624 84.121Q27.55 84.40225 27.378124 84.6835L31.596874 84.6835ZM33.64375 85.69913L33.64375 84.496L34.846874 84.496L34.846874 85.69913L33.64375 85.69913ZM41.51875 79.21475L40.471874 79.29288Q40.33125 78.66788 40.08125 78.38663Q39.64375 77.9335 39.01875 77.9335Q38.51875 77.9335 38.128124 78.21475Q37.64375 78.58975 37.346874 79.29288Q37.065624 79.98038 37.05 81.26163Q37.425 80.6835 37.971874 80.40225Q38.534374 80.121 39.14375 80.121Q40.190624 80.121 40.925 80.90225Q41.675 81.6835 41.675 82.90225Q41.675 83.71475 41.315624 84.41788Q40.971874 85.10538 40.3625 85.48038Q39.753124 85.83975 38.9875 85.83975Q37.659374 85.83975 36.83125 84.871Q36.003124 83.90225 36.003124 81.6835Q36.003124 79.1835 36.925 78.0585Q37.721874 77.07413 39.08125 77.07413Q40.096874 77.07413 40.7375 77.65225Q41.39375 78.21475 41.51875 79.21475ZM37.221874 82.91788Q37.221874 83.46475 37.440624 83.96475Q37.675 84.44913 38.08125 84.71475Q38.503124 84.98038 38.971874 84.98038Q39.628124 84.98038 40.1125 84.44913Q40.596874 83.90225 40.596874 82.98038Q40.596874 82.08975 40.1125 81.57413Q39.64375 81.0585 38.925 81.0585Q38.20625 81.0585 37.70625 81.57413Q37.221874 82.08975 37.221874 82.91788ZM43.253124 79.16788Q43.253124 78.246 43.70625 77.60538Q44.175 76.96475 45.05 76.96475Q45.8625 76.96475 46.39375 77.54288Q46.925 78.121 46.925 79.23038Q46.925 80.32413 46.378124 80.91788Q45.846874 81.496 45.065624 81.496Q44.284374 81.496 43.76875 80.91788Q43.253124 80.33975 43.253124 79.16788ZM45.08125 77.6835Q44.690624 77.6835 44.425 78.02725Q44.175 78.371 44.175 79.27725Q44.175 80.10538 44.425 80.44913Q44.690624 80.77725 45.08125 80.77725Q45.4875 80.77725 45.7375 80.4335Q46.003124 80.08975 46.003124 79.19913Q46.003124 78.35538 45.7375 78.02725Q45.471874 77.6835 45.08125 77.6835ZM45.08125 86.01163L49.784374 76.96475L50.64375 76.96475L45.95625 86.01163L45.08125 86.01163ZM48.8 83.6835Q48.8 82.76163 49.253124 82.121Q49.721874 81.48038 50.6125 81.48038Q51.425 81.48038 51.95625 82.0585Q52.4875 82.621 52.4875 83.746Q52.4875 84.83975 51.940624 85.4335Q51.409374 86.01163 50.6125 86.01163Q49.846874 86.01163 49.315624 85.4335Q48.8 84.85538 48.8 83.6835ZM50.64375 82.19913Q50.2375 82.19913 49.971874 82.54288Q49.721874 82.88663 49.721874 83.79288Q49.721874 84.60538 49.9875 84.94913Q50.253124 85.29288 50.64375 85.29288Q51.034374 85.29288 51.3 84.94913Q51.565624 84.60538 51.565624 83.69913Q51.565624 82.871 51.3 82.54288Q51.034374 82.19913 50.64375 82.19913Z" fill-rule="nonzero"/><path stroke="#757575" stroke-width="1.0" stroke-linecap="butt" d="M18.55 73.19913L145.23334 73.19913L245.70847 73.19913" fill-rule="nonzero"/><path fill="#9e9e9e" d="M247.70847 73.19913C247.70847 72.09456 246.81303 71.19913 245.70847 71.19913C244.6039 71.19913 243.70847 72.09456 243.70847 73.19913C243.70847 74.3037 244.6039 75.19913 245.70847 75.19913C246.81303 75.19913 247.70847 74.3037 247.70847 73.19913" fill-rule="nonzero"/><path fill="#1a1a1a" d="M19.503124 128.0009L19.503124 119.40715L25.70625 119.40715L25.70625 120.422775L20.64375 120.422775L20.64375 123.047775L25.39375 123.047775L25.39375 124.0634L20.64375 124.0634L20.64375 126.985275L25.909374 126.985275L25.909374 128.0009L19.503124 128.0009ZM27.346874 128.0009L27.346874 121.78215L28.284374 121.78215L28.284374 122.65715Q28.971874 121.641525 30.26875 121.641525Q30.83125 121.641525 31.3 121.84465Q31.784374 122.047775 32.01875 122.3759Q32.253124 122.704025 32.346874 123.141525Q32.39375 123.4384 32.39375 124.172775L32.39375 128.0009L31.346874 128.0009L31.346874 124.21965Q31.346874 123.5634 31.221874 123.2509Q31.096874 122.9384 30.784374 122.7509Q30.471874 122.547775 30.05 122.547775Q29.378124 122.547775 28.878124 122.985275Q28.39375 123.40715 28.39375 124.59465L28.39375 128.0009L27.346874 128.0009ZM34.33125 128.0009L34.33125 121.78215L35.284374 121.78215L35.284374 122.71965Q35.64375 122.0634 35.940624 121.860275Q36.253124 121.641525 36.628124 121.641525Q37.159374 121.641525 37.70625 121.96965L37.346874 122.954025Q36.95625 122.71965 36.58125 122.71965Q36.221874 122.71965 35.940624 122.9384Q35.675 123.141525 35.565624 123.516525Q35.378124 124.079025 35.378124 124.735275L35.378124 128.0009L34.33125 128.0009ZM38.346874 120.6259L38.346874 119.40715L39.409374 119.40715L39.409374 120.6259L38.346874 120.6259ZM38.346874 128.0009L38.346874 121.78215L39.409374 121.78215L39.409374 128.0009L38.346874 128.0009ZM45.315624 130.39153L45.315624 127.34465Q45.065624 127.6884 44.6125 127.922775Q44.175 128.14153 43.675 128.14153Q42.565624 128.14153 41.76875 127.266525Q40.971874 126.3759 40.971874 124.829025Q40.971874 123.891525 41.3 123.15715Q41.628124 122.40715 42.2375 122.03215Q42.8625 121.641525 43.596874 121.641525Q44.753124 121.641525 45.409374 122.610275L45.409374 121.78215L46.3625 121.78215L46.3625 130.39153L45.315624 130.39153ZM42.05 124.8759Q42.05 126.079025 42.55 126.672775Q43.065624 127.266525 43.76875 127.266525Q44.440624 127.266525 44.925 126.704025Q45.409374 126.1259 45.409374 124.96965Q45.409374 123.71965 44.89375 123.09465Q44.39375 122.46965 43.690624 122.46965Q43.01875 122.46965 42.534374 123.0634Q42.05 123.641525 42.05 124.8759ZM52.425 128.0009L52.425 127.079025Q51.690624 128.14153 50.440624 128.14153Q49.89375 128.14153 49.409374 127.9384Q48.940624 127.71965 48.70625 127.40715Q48.471874 127.079025 48.378124 126.610275Q48.315624 126.3134 48.315624 125.6259L48.315624 121.78215L49.378124 121.78215L49.378124 125.235275Q49.378124 126.047775 49.440624 126.34465Q49.534374 126.7509 49.846874 127.0009Q50.175 127.235275 50.659374 127.235275Q51.128124 127.235275 51.534374 127.0009Q51.95625 126.7509 52.128124 126.329025Q52.315624 125.90715 52.315624 125.110275L52.315624 121.78215L53.3625 121.78215L53.3625 128.0009L52.425 128.0009ZM59.596874 126.0009L60.690624 126.1259Q60.440624 127.079025 59.7375 127.610275Q59.034374 128.14153 57.95625 128.14153Q56.596874 128.14153 55.784374 127.297775Q54.9875 126.454025 54.9875 124.9384Q54.9875 123.3759 55.8 122.516525Q56.6125 121.641525 57.89375 121.641525Q59.14375 121.641525 59.925 122.485275Q60.721874 123.329025 60.721874 124.8759Q60.721874 124.96965 60.721874 125.15715L56.08125 125.15715Q56.14375 126.1884 56.659374 126.735275Q57.175 127.266525 57.95625 127.266525Q58.534374 127.266525 58.940624 126.96965Q59.3625 126.65715 59.596874 126.0009ZM56.14375 124.297775L59.6125 124.297775Q59.55 123.5009 59.221874 123.110275Q58.70625 122.5009 57.909374 122.5009Q57.175 122.5009 56.675 122.985275Q56.190624 123.46965 56.14375 124.297775ZM71.6125 124.985275L72.7375 125.28215Q72.37813 126.672775 71.45625 127.40715Q70.53438 128.14153 69.19063 128.14153Q67.8 128.14153 66.925 127.579025Q66.05 127.016525 65.59688 125.954025Q65.14375 124.8759 65.14375 123.641525Q65.14375 122.297775 65.65938 121.297775Q66.175 120.297775 67.1125 119.78215Q68.06563 119.266525 69.20625 119.266525Q70.4875 119.266525 71.3625 119.922775Q72.25313 120.579025 72.59688 121.766525L71.47188 122.03215Q71.175 121.09465 70.59688 120.672775Q70.03438 120.235275 69.175 120.235275Q68.19063 120.235275 67.51875 120.71965Q66.8625 121.1884 66.58125 121.985275Q66.31563 122.78215 66.31563 123.641525Q66.31563 124.735275 66.62813 125.547775Q66.95625 126.360275 67.62813 126.766525Q68.3 127.172775 69.09688 127.172775Q70.05 127.172775 70.70625 126.6259Q71.37813 126.079025 71.6125 124.985275ZM74.34688 128.0009L74.34688 119.40715L75.39375 119.40715L75.39375 122.485275Q76.12813 121.641525 77.25313 121.641525Q77.95625 121.641525 78.45625 121.922775Q78.97188 122.1884 79.19063 122.672775Q79.40938 123.141525 79.40938 124.0634L79.40938 128.0009L78.3625 128.0009L78.3625 124.0634Q78.3625 123.266525 78.01875 122.90715Q77.675 122.547775 77.05 122.547775Q76.58125 122.547775 76.15938 122.797775Q75.75313 123.03215 75.56563 123.454025Q75.39375 123.860275 75.39375 124.59465L75.39375 128.0009L74.34688 128.0009ZM80.95625 124.891525Q80.95625 123.15715 81.90938 122.329025Q82.70625 121.641525 83.8625 121.641525Q85.14375 121.641525 85.95625 122.485275Q86.78438 123.3134 86.78438 124.797775Q86.78438 126.0009 86.425 126.6884Q86.06563 127.3759 85.3625 127.766525Q84.675 128.14153 83.8625 128.14153Q82.56563 128.14153 81.75313 127.3134Q80.95625 126.46965 80.95625 124.891525ZM82.03438 124.891525Q82.03438 126.079025 82.55 126.672775Q83.08125 127.266525 83.8625 127.266525Q84.65938 127.266525 85.175 126.672775Q85.69063 126.079025 85.69063 124.860275Q85.69063 123.704025 85.15938 123.110275Q84.64375 122.516525 83.8625 122.516525Q83.08125 122.516525 82.55 123.110275Q82.03438 123.6884 82.03438 124.891525ZM88.34688 128.0009L88.34688 121.78215L89.28438 121.78215L89.28438 122.65715Q89.58125 122.1884 90.06563 121.922775Q90.55 121.641525 91.175 121.641525Q91.8625 121.641525 92.3 121.922775Q92.75313 122.204025 92.925 122.71965Q93.675 121.641525 94.84688 121.641525Q95.78438 121.641525 96.26875 122.15715Q96.76875 122.65715 96.76875 123.735275L96.76875 128.0009L95.72188 128.0009L95.72188 124.079025Q95.72188 123.454025 95.6125 123.172775Q95.51875 122.891525 95.25313 122.71965Q94.9875 122.547775 94.6125 122.547775Q93.95625 122.547775 93.51875 122.985275Q93.09688 123.422775 93.09688 124.391525L93.09688 128.0009L92.03438 128.0009L92.03438 123.954025Q92.03438 123.2509 91.76875 122.90715Q91.51875 122.547775 90.94063 122.547775Q90.4875 122.547775 90.1125 122.78215Q89.7375 123.016525 89.56563 123.46965Q89.39375 123.922775 89.39375 124.766525L89.39375 128.0009L88.34688 128.0009ZM99.34688 130.39153L99.34688 121.78215L100.3 121.78215L100.3 122.579025Q100.64375 122.110275 101.06563 121.8759Q101.50313 121.641525 102.1125 121.641525Q102.90938 121.641525 103.51875 122.047775Q104.12813 122.454025 104.425 123.204025Q104.7375 123.954025 104.7375 124.84465Q104.7375 125.797775 104.39375 126.5634Q104.06563 127.329025 103.40938 127.735275Q102.75313 128.14153 102.03438 128.14153Q101.50313 128.14153 101.08125 127.922775Q100.65938 127.6884 100.39375 127.360275L100.39375 130.39153L99.34688 130.39153ZM100.3 124.922775Q100.3 126.1259 100.78438 126.704025Q101.26875 127.266525 101.95625 127.266525Q102.65938 127.266525 103.15938 126.672775Q103.65938 126.079025 103.65938 124.829025Q103.65938 123.641525 103.175 123.0634Q102.69063 122.46965 102.00313 122.46965Q101.33125 122.46965 100.81563 123.09465Q100.3 123.71965 100.3 124.922775ZM106.33125 128.0009L106.33125 121.78215L107.28438 121.78215L107.28438 122.71965Q107.64375 122.0634 107.94063 121.860275Q108.25313 121.641525 108.62813 121.641525Q109.15938 121.641525 109.70625 121.96965L109.34688 122.954025Q108.95625 122.71965 108.58125 122.71965Q108.22188 122.71965 107.94063 122.9384Q107.675 123.141525 107.56563 123.516525Q107.37813 124.079025 107.37813 124.735275L107.37813 128.0009L106.33125 128.0009ZM114.59688 126.0009L115.69063 126.1259Q115.44063 127.079025 114.7375 127.610275Q114.03438 128.14153 112.95625 128.14153Q111.59688 128.14153 110.78438 127.297775Q109.9875 126.454025 109.9875 124.9384Q109.9875 123.3759 110.8 122.516525Q111.6125 121.641525 112.89375 121.641525Q114.14375 121.641525 114.925 122.485275Q115.72188 123.329025 115.72188 124.8759Q115.72188 124.96965 115.72188 125.15715L111.08125 125.15715Q111.14375 126.1884 111.65938 126.735275Q112.175 127.266525 112.95625 127.266525Q113.53438 127.266525 113.94063 126.96965Q114.3625 126.65715 114.59688 126.0009ZM111.14375 124.297775L114.6125 124.297775Q114.55 123.5009 114.22188 123.110275Q113.70625 122.5009 112.90938 122.5009Q112.175 122.5009 111.675 122.985275Q111.19063 123.46965 111.14375 124.297775ZM112.26875 121.0009L113.05 119.360275L114.44063 119.360275L113.14375 121.0009L112.26875 121.0009Z" fill-rule="nonzero"/><path fill="#9e9e9e" d="M20.675 140.34465Q20.01875 140.09465 19.690624 139.65715Q19.378124 139.20403 19.378124 138.59465Q19.378124 137.65715 20.05 137.01653Q20.7375 136.3759 21.846874 136.3759Q22.971874 136.3759 23.659374 137.03215Q24.346874 137.6884 24.346874 138.6259Q24.346874 139.21965 24.034374 139.65715Q23.721874 140.09465 23.08125 140.34465Q23.878124 140.59465 24.284374 141.17278Q24.690624 141.7509 24.690624 142.54778Q24.690624 143.64153 23.909374 144.39153Q23.14375 145.14153 21.8625 145.14153Q20.596874 145.14153 19.815624 144.39153Q19.034374 143.64153 19.034374 142.51653Q19.034374 141.67278 19.45625 141.11028Q19.89375 140.54778 20.675 140.34465ZM20.45625 138.54778Q20.45625 139.15715 20.846874 139.54778Q21.253124 139.9384 21.878124 139.9384Q22.4875 139.9384 22.878124 139.5634Q23.26875 139.17278 23.26875 138.61028Q23.26875 138.03215 22.8625 137.64153Q22.45625 137.23528 21.8625 137.23528Q21.253124 137.23528 20.846874 137.6259Q20.45625 138.01653 20.45625 138.54778ZM20.128124 142.51653Q20.128124 142.96965 20.33125 143.39153Q20.55 143.8134 20.971874 144.04778Q21.39375 144.28215 21.878124 144.28215Q22.628124 144.28215 23.1125 143.79778Q23.6125 143.3134 23.6125 142.5634Q23.6125 141.79778 23.1125 141.29778Q22.6125 140.79778 21.846874 140.79778Q21.096874 140.79778 20.6125 141.29778Q20.128124 141.78215 20.128124 142.51653ZM26.64375 145.0009L26.64375 143.79778L27.846874 143.79778L27.846874 145.0009L26.64375 145.0009ZM33.01875 145.0009L31.971874 145.0009L31.971874 138.28215Q31.58125 138.64153 30.95625 139.01653Q30.346874 139.3759 29.8625 139.54778L29.8625 138.53215Q30.7375 138.11028 31.39375 137.53215Q32.065624 136.9384 32.346874 136.3759L33.01875 136.3759L33.01875 145.0009ZM36.253124 138.46965Q36.253124 137.54778 36.70625 136.90715Q37.175 136.26653 38.05 136.26653Q38.8625 136.26653 39.39375 136.84465Q39.925 137.42278 39.925 138.53215Q39.925 139.6259 39.378124 140.21965Q38.846874 140.79778 38.065624 140.79778Q37.284374 140.79778 36.76875 140.21965Q36.253124 139.64153 36.253124 138.46965ZM38.08125 136.98528Q37.690624 136.98528 37.425 137.32903Q37.175 137.67278 37.175 138.57903Q37.175 139.40715 37.425 139.7509Q37.690624 140.07903 38.08125 140.07903Q38.4875 140.07903 38.7375 139.73528Q39.003124 139.39153 39.003124 138.5009Q39.003124 137.65715 38.7375 137.32903Q38.471874 136.98528 38.08125 136.98528ZM38.08125 145.3134L42.784374 136.26653L43.64375 136.26653L38.95625 145.3134L38.08125 145.3134ZM41.8 142.98528Q41.8 142.0634 42.253124 141.42278Q42.721874 140.78215 43.6125 140.78215Q44.425 140.78215 44.95625 141.36028Q45.4875 141.92278 45.4875 143.04778Q45.4875 144.14153 44.940624 144.73528Q44.409374 145.3134 43.6125 145.3134Q42.846874 145.3134 42.315624 144.73528Q41.8 144.15715 41.8 142.98528ZM43.64375 141.5009Q43.2375 141.5009 42.971874 141.84465Q42.721874 142.1884 42.721874 143.09465Q42.721874 143.90715 42.9875 144.2509Q43.253124 144.59465 43.64375 144.59465Q44.034374 144.59465 44.3 144.2509Q44.565624 143.90715 44.565624 143.0009Q44.565624 142.17278 44.3 141.84465Q44.034374 141.5009 43.64375 141.5009Z" fill-rule="nonzero"/><path stroke="#757575" stroke-width="1.0" stroke-linecap="butt" d="M18.55 132.5009L145.23334 132.5009L177.90677 132.5009" fill-rule="nonzero"/><path fill="#9e9e9e" d="M179.90677 132.5009C179.90677 131.39633 179.01134 130.5009 177.90677 130.5009C176.8022 130.5009 175.90677 131.39633 175.90677 132.5009C175.90677 133.60547 176.8022 134.5009 177.90677 134.5009C179.01134 134.5009 179.90677 133.60547 179.90677 132.5009" fill-rule="nonzero"/><path fill="#1a1a1a" d="M462.4344 311.80627L462.4344 303.21252L468.23126 303.21252L468.23126 304.22815L463.575 304.22815L463.575 306.8844L467.60626 306.8844L467.60626 307.90002L463.575 307.90002L463.575 311.80627L462.4344 311.80627ZM473.3094 311.04065Q472.71564 311.54065 472.16876 311.74377Q471.6375 311.9469 471.0125 311.9469Q469.98126 311.9469 469.4344 311.4469Q468.8875 310.9469 468.8875 310.16565Q468.8875 309.71252 469.09064 309.33752Q469.29376 308.9469 469.6375 308.72815Q469.98126 308.49377 470.40314 308.3844Q470.7 308.29065 471.34064 308.21252Q472.60626 308.0719 473.21564 307.85315Q473.21564 307.6344 473.21564 307.58752Q473.21564 306.93127 472.91876 306.66565Q472.5125 306.3219 471.71564 306.3219Q470.98126 306.3219 470.6219 306.58752Q470.2625 306.83752 470.09064 307.49377L469.0594 307.35315Q469.2 306.6969 469.52814 306.29065Q469.85626 305.8844 470.46564 305.66565Q471.075 305.4469 471.8719 305.4469Q472.66876 305.4469 473.16876 305.6344Q473.66876 305.8219 473.90314 306.10315Q474.1375 306.3844 474.23126 306.8219Q474.27814 307.08752 474.27814 307.79065L474.27814 309.1969Q474.27814 310.66565 474.34064 311.05627Q474.41876 311.4469 474.6219 311.80627L473.5125 311.80627Q473.35626 311.47815 473.3094 311.04065ZM473.21564 308.68127Q472.6375 308.91565 471.4969 309.08752Q470.84064 309.18127 470.575 309.30627Q470.3094 309.41565 470.15314 309.6344Q470.0125 309.85315 470.0125 310.1344Q470.0125 310.55627 470.325 310.83752Q470.65314 311.11877 471.2625 311.11877Q471.8719 311.11877 472.34064 310.85315Q472.825 310.58752 473.04376 310.11877Q473.21564 309.7594 473.21564 309.0719L473.21564 308.68127ZM477.21564 311.80627L476.23126 311.80627L476.23126 303.21252L477.29376 303.21252L477.29376 306.27502Q477.96564 305.4469 478.9969 305.4469Q479.575 305.4469 480.075 305.68127Q480.59064 305.90002 480.91876 306.3219Q481.2625 306.74377 481.45 307.33752Q481.6375 307.93127 481.6375 308.60315Q481.6375 310.1969 480.84064 311.0719Q480.04376 311.9469 478.95 311.9469Q477.84064 311.9469 477.21564 311.02502L477.21564 311.80627ZM477.2 308.65002Q477.2 309.7594 477.5125 310.2594Q478.0125 311.0719 478.85626 311.0719Q479.54376 311.0719 480.04376 310.47815Q480.5594 309.8844 480.5594 308.68127Q480.5594 307.46252 480.075 306.8844Q479.59064 306.30627 478.90314 306.30627Q478.21564 306.30627 477.7 306.91565Q477.2 307.5094 477.2 308.65002ZM483.2469 304.43127L483.2469 303.21252L484.3094 303.21252L484.3094 304.43127L483.2469 304.43127ZM483.2469 311.80627L483.2469 305.58752L484.3094 305.58752L484.3094 311.80627L483.2469 311.80627ZM485.85626 308.6969Q485.85626 306.96252 486.8094 306.1344Q487.60626 305.4469 488.7625 305.4469Q490.04376 305.4469 490.85626 306.29065Q491.6844 307.11877 491.6844 308.60315Q491.6844 309.80627 491.325 310.49377Q490.96564 311.18127 490.2625 311.5719Q489.575 311.9469 488.7625 311.9469Q487.46564 311.9469 486.65314 311.11877Q485.85626 310.27502 485.85626 308.6969ZM486.9344 308.6969Q486.9344 309.8844 487.45 310.47815Q487.98126 311.0719 488.7625 311.0719Q489.5594 311.0719 490.075 310.47815Q490.59064 309.8844 490.59064 308.66565Q490.59064 307.5094 490.0594 306.91565Q489.54376 306.3219 488.7625 306.3219Q487.98126 306.3219 487.45 306.91565Q486.9344 307.49377 486.9344 308.6969ZM495.79376 309.36877L496.825 309.22815Q496.85626 310.21252 497.1844 310.5719Q497.5125 310.93127 498.10626 310.93127Q498.52814 310.93127 498.84064 310.74377Q499.15314 310.54065 499.2625 310.21252Q499.3875 309.86877 499.3875 309.1344L499.3875 303.21252L500.5125 303.21252L500.5125 309.0719Q500.5125 310.15002 500.2469 310.74377Q499.9969 311.33752 499.4344 311.65002Q498.8719 311.9469 498.10626 311.9469Q496.98126 311.9469 496.3719 311.30627Q495.77814 310.65002 495.79376 309.36877ZM502.54376 311.80627L502.54376 310.60315L503.7469 310.60315L503.7469 311.80627L502.54376 311.80627ZM508.34064 311.80627L508.34064 303.21252L510.0594 303.21252L512.09064 309.29065Q512.3719 310.15002 512.4969 310.5719Q512.6375 310.10315 512.95 309.1969L515.0125 303.21252L516.54376 303.21252L516.54376 311.80627L515.45 311.80627L515.45 304.61877L512.95 311.80627L511.91876 311.80627L509.4344 304.49377L509.4344 311.80627L508.34064 311.80627ZM521.3094 311.04065Q520.71564 311.54065 520.16876 311.74377Q519.6375 311.9469 519.0125 311.9469Q517.98126 311.9469 517.4344 311.4469Q516.8875 310.9469 516.8875 310.16565Q516.8875 309.71252 517.09064 309.33752Q517.29376 308.9469 517.6375 308.72815Q517.98126 308.49377 518.40314 308.3844Q518.7 308.29065 519.34064 308.21252Q520.60626 308.0719 521.21564 307.85315Q521.21564 307.6344 521.21564 307.58752Q521.21564 306.93127 520.91876 306.66565Q520.5125 306.3219 519.71564 306.3219Q518.98126 306.3219 518.6219 306.58752Q518.2625 306.83752 518.09064 307.49377L517.0594 307.35315Q517.2 306.6969 517.52814 306.29065Q517.85626 305.8844 518.46564 305.66565Q519.075 305.4469 519.8719 305.4469Q520.66876 305.4469 521.16876 305.6344Q521.66876 305.8219 521.90314 306.10315Q522.1375 306.3844 522.23126 306.8219Q522.27814 307.08752 522.27814 307.79065L522.27814 309.1969Q522.27814 310.66565 522.34064 311.05627Q522.41876 311.4469 522.6219 311.80627L521.5125 311.80627Q521.35626 311.47815 521.3094 311.04065ZM521.21564 308.68127Q520.6375 308.91565 519.4969 309.08752Q518.84064 309.18127 518.575 309.30627Q518.3094 309.41565 518.15314 309.6344Q518.0125 309.85315 518.0125 310.1344Q518.0125 310.55627 518.325 310.83752Q518.65314 311.11877 519.2625 311.11877Q519.8719 311.11877 520.34064 310.85315Q520.825 310.58752 521.04376 310.11877Q521.21564 309.7594 521.21564 309.0719L521.21564 308.68127ZM526.54376 310.86877L526.7 311.79065Q526.2469 311.8844 525.90314 311.8844Q525.325 311.8844 525.0125 311.71252Q524.7 311.52502 524.5594 311.22815Q524.4344 310.93127 524.4344 309.97815L524.4344 306.40002L523.66876 306.40002L523.66876 305.58752L524.4344 305.58752L524.4344 304.04065L525.48126 303.41565L525.48126 305.58752L526.54376 305.58752L526.54376 306.40002L525.48126 306.40002L525.48126 310.04065Q525.48126 310.49377 525.52814 310.61877Q525.59064 310.74377 525.71564 310.8219Q525.84064 310.90002 526.075 310.90002Q526.2625 310.90002 526.54376 310.86877ZM526.85626 308.6969Q526.85626 306.96252 527.8094 306.1344Q528.60626 305.4469 529.7625 305.4469Q531.04376 305.4469 531.85626 306.29065Q532.6844 307.11877 532.6844 308.60315Q532.6844 309.80627 532.325 310.49377Q531.96564 311.18127 531.2625 311.5719Q530.575 311.9469 529.7625 311.9469Q528.46564 311.9469 527.65314 311.11877Q526.85626 310.27502 526.85626 308.6969ZM527.9344 308.6969Q527.9344 309.8844 528.45 310.47815Q528.98126 311.0719 529.7625 311.0719Q530.5594 311.0719 531.075 310.47815Q531.59064 309.8844 531.59064 308.66565Q531.59064 307.5094 531.0594 306.91565Q530.54376 306.3219 529.7625 306.3219Q528.98126 306.3219 528.45 306.91565Q527.9344 307.49377 527.9344 308.6969ZM533.825 309.9469L534.85626 309.79065Q534.95 310.41565 535.34064 310.74377Q535.7469 311.0719 536.48126 311.0719Q537.2 311.0719 537.54376 310.79065Q537.90314 310.49377 537.90314 310.08752Q537.90314 309.72815 537.59064 309.52502Q537.3719 309.3844 536.5125 309.16565Q535.35626 308.86877 534.90314 308.66565Q534.46564 308.4469 534.23126 308.0719Q533.9969 307.6969 533.9969 307.22815Q533.9969 306.8219 534.1844 306.46252Q534.3719 306.10315 534.7 305.86877Q534.95 305.6969 535.3719 305.5719Q535.79376 305.4469 536.29376 305.4469Q537.0125 305.4469 537.5594 305.66565Q538.1219 305.86877 538.3875 306.22815Q538.65314 306.58752 538.7469 307.18127L537.71564 307.3219Q537.65314 306.85315 537.3094 306.58752Q536.98126 306.30627 536.35626 306.30627Q535.6375 306.30627 535.325 306.55627Q535.0125 306.79065 535.0125 307.11877Q535.0125 307.3219 535.1375 307.47815Q535.27814 307.65002 535.54376 307.7594Q535.7 307.8219 536.48126 308.02502Q537.60626 308.33752 538.04376 308.52502Q538.48126 308.71252 538.73126 309.0719Q538.98126 309.43127 538.98126 309.97815Q538.98126 310.5094 538.66876 310.97815Q538.3719 311.43127 537.79376 311.6969Q537.21564 311.9469 536.48126 311.9469Q535.2625 311.9469 534.6219 311.4469Q533.9969 310.93127 533.825 309.9469ZM544.3719 311.80627L544.3719 303.21252L545.52814 303.21252L550.04376 309.96252L550.04376 303.21252L551.1375 303.21252L551.1375 311.80627L549.96564 311.80627L545.45 305.05627L545.45 311.80627L544.3719 311.80627ZM553.2469 304.43127L553.2469 303.21252L554.3094 303.21252L554.3094 304.43127L553.2469 304.43127ZM553.2469 311.80627L553.2469 305.58752L554.3094 305.58752L554.3094 311.80627L553.2469 311.80627ZM560.4969 309.80627L561.59064 309.93127Q561.34064 310.8844 560.6375 311.41565Q559.9344 311.9469 558.85626 311.9469Q557.4969 311.9469 556.6844 311.10315Q555.8875 310.2594 555.8875 308.74377Q555.8875 307.18127 556.7 306.3219Q557.5125 305.4469 558.79376 305.4469Q560.04376 305.4469 560.825 306.29065Q561.6219 307.1344 561.6219 308.68127Q561.6219 308.77502 561.6219 308.96252L556.98126 308.96252Q557.04376 309.99377 557.5594 310.54065Q558.075 311.0719 558.85626 311.0719Q559.4344 311.0719 559.84064 310.77502Q560.2625 310.46252 560.4969 309.80627ZM557.04376 308.10315L560.5125 308.10315Q560.45 307.30627 560.1219 306.91565Q559.60626 306.30627 558.8094 306.30627Q558.075 306.30627 557.575 306.79065Q557.09064 307.27502 557.04376 308.10315ZM564.96564 311.80627L562.60626 305.58752L563.71564 305.58752L565.0594 309.30627Q565.2625 309.91565 565.45 310.55627Q565.59064 310.0719 565.84064 309.3844L567.23126 305.58752L568.3094 305.58752L565.95 311.80627L564.96564 311.80627ZM572.4969 309.80627L573.59064 309.93127Q573.34064 310.8844 572.6375 311.41565Q571.9344 311.9469 570.85626 311.9469Q569.4969 311.9469 568.6844 311.10315Q567.8875 310.2594 567.8875 308.74377Q567.8875 307.18127 568.7 306.3219Q569.5125 305.4469 570.79376 305.4469Q572.04376 305.4469 572.825 306.29065Q573.6219 307.1344 573.6219 308.68127Q573.6219 308.77502 573.6219 308.96252L568.98126 308.96252Q569.04376 309.99377 569.5594 310.54065Q570.075 311.0719 570.85626 311.0719Q571.4344 311.0719 571.84064 310.77502Q572.2625 310.46252 572.4969 309.80627ZM569.04376 308.10315L572.5125 308.10315Q572.45 307.30627 572.1219 306.91565Q571.60626 306.30627 570.8094 306.30627Q570.075 306.30627 569.575 306.79065Q569.09064 307.27502 569.04376 308.10315ZM574.825 309.9469L575.85626 309.79065Q575.95 310.41565 576.34064 310.74377Q576.7469 311.0719 577.48126 311.0719Q578.2 311.0719 578.54376 310.79065Q578.90314 310.49377 578.90314 310.08752Q578.90314 309.72815 578.59064 309.52502Q578.3719 309.3844 577.5125 309.16565Q576.35626 308.86877 575.90314 308.66565Q575.46564 308.4469 575.23126 308.0719Q574.9969 307.6969 574.9969 307.22815Q574.9969 306.8219 575.1844 306.46252Q575.3719 306.10315 575.7 305.86877Q575.95 305.6969 576.3719 305.5719Q576.79376 305.4469 577.29376 305.4469Q578.0125 305.4469 578.5594 305.66565Q579.1219 305.86877 579.3875 306.22815Q579.65314 306.58752 579.7469 307.18127L578.71564 307.3219Q578.65314 306.85315 578.3094 306.58752Q577.98126 306.30627 577.35626 306.30627Q576.6375 306.30627 576.325 306.55627Q576.0125 306.79065 576.0125 307.11877Q576.0125 307.3219 576.1375 307.47815Q576.27814 307.65002 576.54376 307.7594Q576.7 307.8219 577.48126 308.02502Q578.60626 308.33752 579.04376 308.52502Q579.48126 308.71252 579.73126 309.0719Q579.98126 309.43127 579.98126 309.97815Q579.98126 310.5094 579.66876 310.97815Q579.3719 311.43127 578.79376 311.6969Q578.21564 311.9469 577.48126 311.9469Q576.2625 311.9469 575.6219 311.4469Q574.9969 310.93127 574.825 309.9469Z" fill-rule="nonzero"/><path fill="#9e9e9e" d="M547.0125 321.33752L547.0125 320.3219L552.575 320.3219L552.575 321.15002Q551.7625 322.02502 550.95 323.47815Q550.15314 324.91565 549.71564 326.4469Q549.3875 327.52502 549.3094 328.80627L548.21564 328.80627Q548.23126 327.79065 548.60626 326.35315Q548.9969 324.91565 549.7 323.58752Q550.41876 322.2594 551.23126 321.33752L547.0125 321.33752ZM554.10626 326.8219L555.1219 326.72815Q555.2469 327.4469 555.60626 327.77502Q555.98126 328.08752 556.54376 328.08752Q557.02814 328.08752 557.3875 327.86877Q557.7625 327.6344 557.9969 327.27502Q558.23126 326.90002 558.3875 326.27502Q558.54376 325.6344 558.54376 324.97815Q558.54376 324.90002 558.54376 324.7594Q558.23126 325.2594 557.6844 325.58752Q557.1375 325.90002 556.4969 325.90002Q555.41876 325.90002 554.6844 325.1344Q553.95 324.35315 553.95 323.08752Q553.95 321.77502 554.71564 320.97815Q555.4969 320.18127 556.65314 320.18127Q557.48126 320.18127 558.16876 320.6344Q558.8719 321.08752 559.23126 321.93127Q559.59064 322.7594 559.59064 324.33752Q559.59064 325.97815 559.23126 326.96252Q558.8875 327.93127 558.16876 328.4469Q557.46564 328.9469 556.52814 328.9469Q555.5125 328.9469 554.8719 328.40002Q554.23126 327.83752 554.10626 326.8219ZM558.41876 323.02502Q558.41876 322.11877 557.9344 321.58752Q557.46564 321.05627 556.77814 321.05627Q556.075 321.05627 555.54376 321.6344Q555.02814 322.1969 555.02814 323.11877Q555.02814 323.93127 555.52814 324.4469Q556.02814 324.96252 556.7469 324.96252Q557.48126 324.96252 557.95 324.4469Q558.41876 323.93127 558.41876 323.02502ZM561.54376 328.80627L561.54376 327.60315L562.7469 327.60315L562.7469 328.80627L561.54376 328.80627ZM567.325 328.80627L567.325 326.74377L563.60626 326.74377L563.60626 325.77502L567.52814 320.21252L568.3875 320.21252L568.3875 325.77502L569.54376 325.77502L569.54376 326.74377L568.3875 326.74377L568.3875 328.80627L567.325 328.80627ZM567.325 325.77502L567.325 321.91565L564.6375 325.77502L567.325 325.77502ZM571.15314 322.27502Q571.15314 321.35315 571.60626 320.71252Q572.075 320.0719 572.95 320.0719Q573.7625 320.0719 574.29376 320.65002Q574.825 321.22815 574.825 322.33752Q574.825 323.43127 574.27814 324.02502Q573.7469 324.60315 572.96564 324.60315Q572.1844 324.60315 571.66876 324.02502Q571.15314 323.4469 571.15314 322.27502ZM572.98126 320.79065Q572.59064 320.79065 572.325 321.1344Q572.075 321.47815 572.075 322.3844Q572.075 323.21252 572.325 323.55627Q572.59064 323.8844 572.98126 323.8844Q573.3875 323.8844 573.6375 323.54065Q573.90314 323.1969 573.90314 322.30627Q573.90314 321.46252 573.6375 321.1344Q573.3719 320.79065 572.98126 320.79065ZM572.98126 329.11877L577.6844 320.0719L578.54376 320.0719L573.85626 329.11877L572.98126 329.11877ZM576.7 326.79065Q576.7 325.86877 577.15314 325.22815Q577.6219 324.58752 578.5125 324.58752Q579.325 324.58752 579.85626 325.16565Q580.3875 325.72815 580.3875 326.85315Q580.3875 327.9469 579.84064 328.54065Q579.3094 329.11877 578.5125 329.11877Q577.7469 329.11877 577.21564 328.54065Q576.7 327.96252 576.7 326.79065ZM578.54376 325.30627Q578.1375 325.30627 577.8719 325.65002Q577.6219 325.99377 577.6219 326.90002Q577.6219 327.71252 577.8875 328.05627Q578.15314 328.40002 578.54376 328.40002Q578.9344 328.40002 579.2 328.05627Q579.46564 327.71252 579.46564 326.80627Q579.46564 325.97815 579.2 325.65002Q578.9344 325.30627 578.54376 325.30627Z" fill-rule="nonzero"/><path stroke="#757575" stroke-width="1.0" stroke-linecap="butt" d="M581.45 316.30627L454.76666 316.30627L385.38016 316.30627" fill-rule="nonzero"/><path fill="#9e9e9e" d="M387.38016 316.30627C387.38016 315.20172 386.4847 314.30627 385.38016 314.30627C384.27557 314.30627 383.38016 315.20172 383.38016 316.30627C383.38016 317.41086 384.27557 318.30627 385.38016 318.30627C386.4847 318.30627 387.38016 317.41086 387.38016 316.30627" fill-rule="nonzero"/><path fill="#757575" d="M20.08125 37.55L20.08125 23.2375L22.01875 23.2375L29.534374 34.471874L29.534374 23.2375L31.346874 23.2375L31.346874 37.55L29.409374 37.55L21.89375 26.3L21.89375 37.55L20.08125 37.55ZM39.659374 37.55L39.659374 36.01875Q38.45625 37.784374 36.378124 37.784374Q35.45625 37.784374 34.659374 37.440624Q33.8625 37.08125 33.471874 36.55Q33.096874 36.01875 32.940624 35.2375Q32.83125 34.721874 32.83125 33.596874L32.83125 27.175L34.58125 27.175L34.58125 32.925Q34.58125 34.3 34.690624 34.784374Q34.8625 35.471874 35.39375 35.878124Q35.940624 36.26875 36.721874 36.26875Q37.51875 36.26875 38.20625 35.8625Q38.909374 35.45625 39.190624 34.76875Q39.4875 34.065624 39.4875 32.7375L39.4875 27.175L41.2375 27.175L41.2375 37.55L39.659374 37.55ZM42.8625 37.55L42.8625 27.175L44.440624 27.175L44.440624 28.628124Q44.925 27.878124 45.7375 27.409374Q46.55 26.940624 47.58125 26.940624Q48.7375 26.940624 49.471874 27.425Q50.20625 27.89375 50.51875 28.753124Q51.753124 26.940624 53.721874 26.940624Q55.26875 26.940624 56.096874 27.8Q56.925 28.659374 56.925 30.425L56.925 37.55L55.175 37.55L55.175 31.01875Q55.175 29.95625 55.003124 29.503124Q54.83125 29.034374 54.378124 28.753124Q53.940624 28.471874 53.33125 28.471874Q52.2375 28.471874 51.503124 29.20625Q50.784374 29.925 50.784374 31.51875L50.784374 37.55L49.034374 37.55L49.034374 30.815624Q49.034374 29.64375 48.596874 29.065624Q48.175 28.471874 47.190624 28.471874Q46.45625 28.471874 45.815624 28.8625Q45.190624 29.253124 44.909374 30.003124Q44.628124 30.753124 44.628124 32.175L44.628124 37.55L42.8625 37.55ZM60.4875 37.55L58.8625 37.55L58.8625 23.2375L60.6125 23.2375L60.6125 28.346874Q61.7375 26.940624 63.45625 26.940624Q64.40938 26.940624 65.26875 27.33125Q66.12813 27.721874 66.675 28.425Q67.22188 29.1125 67.53438 30.096874Q67.84688 31.08125 67.84688 32.20625Q67.84688 34.878124 66.53438 36.33125Q65.22188 37.784374 63.378124 37.784374Q61.534374 37.784374 60.4875 36.253124L60.4875 37.55ZM60.471874 32.284374Q60.471874 34.14375 60.971874 34.9875Q61.815624 36.33125 63.221874 36.33125Q64.37813 36.33125 65.20625 35.33125Q66.05 34.33125 66.05 32.346874Q66.05 30.315624 65.2375 29.3625Q64.44063 28.39375 63.3 28.39375Q62.14375 28.39375 61.3 29.39375Q60.471874 30.39375 60.471874 32.284374ZM76.97188 34.20625L78.78438 34.440624Q78.3625 36.01875 77.19063 36.909374Q76.03438 37.784374 74.22188 37.784374Q71.95625 37.784374 70.6125 36.39375Q69.28438 34.9875 69.28438 32.45625Q69.28438 29.83125 70.62813 28.39375Q71.97188 26.940624 74.12813 26.940624Q76.20625 26.940624 77.51875 28.3625Q78.84688 29.76875 78.84688 32.346874Q78.84688 32.503124 78.83125 32.815624L71.09688 32.815624Q71.19063 34.51875 72.06563 35.425Q72.94063 36.33125 74.2375 36.33125Q75.20625 36.33125 75.87813 35.83125Q76.56563 35.315624 76.97188 34.20625ZM71.19063 31.3625L76.9875 31.3625Q76.87813 30.065624 76.33125 29.409374Q75.4875 28.39375 74.14375 28.39375Q72.94063 28.39375 72.1125 29.20625Q71.28438 30.003124 71.19063 31.3625ZM80.84688 37.55L80.84688 27.175L82.425 27.175L82.425 28.753124Q83.03438 27.64375 83.55 27.3Q84.06563 26.940624 84.675 26.940624Q85.56563 26.940624 86.4875 27.503124L85.87813 29.14375Q85.2375 28.753124 84.59688 28.753124Q84.01875 28.753124 83.55 29.1125Q83.09688 29.45625 82.89375 30.065624Q82.6125 31.003124 82.6125 32.1125L82.6125 37.55L80.84688 37.55ZM93.22188 32.3625Q93.22188 29.4875 94.81563 28.096874Q96.15938 26.940624 98.08125 26.940624Q100.22188 26.940624 101.56563 28.346874Q102.925 29.753124 102.925 32.221874Q102.925 34.221874 102.33125 35.378124Q101.7375 36.51875 100.58125 37.159374Q99.44063 37.784374 98.08125 37.784374Q95.89375 37.784374 94.55 36.39375Q93.22188 34.9875 93.22188 32.3625ZM95.01875 32.3625Q95.01875 34.3625 95.87813 35.346874Q96.75313 36.33125 98.08125 36.33125Q99.39375 36.33125 100.25313 35.346874Q101.12813 34.346874 101.12813 32.3Q101.12813 30.378124 100.25313 29.39375Q99.37813 28.39375 98.08125 28.39375Q96.75313 28.39375 95.87813 29.39375Q95.01875 30.378124 95.01875 32.3625ZM105.28438 37.55L105.28438 28.55L103.7375 28.55L103.7375 27.175L105.28438 27.175L105.28438 26.08125Q105.28438 25.034374 105.47188 24.51875Q105.72188 23.83125 106.3625 23.409374Q107.00313 22.9875 108.15938 22.9875Q108.90938 22.9875 109.8 23.159374L109.53438 24.690624Q108.9875 24.596874 108.50313 24.596874Q107.70625 24.596874 107.3625 24.940624Q107.03438 25.284374 107.03438 26.221874L107.03438 27.175L109.06563 27.175L109.06563 28.55L107.03438 28.55L107.03438 37.55L105.28438 37.55ZM123.64375 33.753124L125.3625 33.971874Q125.08125 35.76875 123.90938 36.784374Q122.75313 37.784374 121.05 37.784374Q118.925 37.784374 117.62813 36.39375Q116.33125 35.003124 116.33125 32.409374Q116.33125 30.721874 116.87813 29.471874Q117.44063 28.20625 118.58125 27.58125Q119.72188 26.940624 121.06563 26.940624Q122.75313 26.940624 123.81563 27.8Q124.89375 28.659374 125.20625 30.221874L123.4875 30.4875Q123.25313 29.440624 122.62813 28.925Q122.00313 28.39375 121.12813 28.39375Q119.8 28.39375 118.97188 29.346874Q118.14375 30.3 118.14375 32.346874Q118.14375 34.440624 118.94063 35.39375Q119.7375 36.33125 121.03438 36.33125Q122.06563 36.33125 122.75313 35.70625Q123.45625 35.065624 123.64375 33.753124ZM126.22188 32.3625Q126.22188 29.4875 127.81563 28.096874Q129.15938 26.940624 131.08125 26.940624Q133.22188 26.940624 134.56563 28.346874Q135.925 29.753124 135.925 32.221874Q135.925 34.221874 135.33125 35.378124Q134.7375 36.51875 133.58125 37.159374Q132.44063 37.784374 131.08125 37.784374Q128.89375 37.784374 127.55 36.39375Q126.22188 34.9875 126.22188 32.3625ZM128.01875 32.3625Q128.01875 34.3625 128.87813 35.346874Q129.75313 36.33125 131.08125 36.33125Q132.39375 36.33125 133.25313 35.346874Q134.12813 34.346874 134.12813 32.3Q134.12813 30.378124 133.25313 29.39375Q132.37813 28.39375 131.08125 28.39375Q129.75313 28.39375 128.87813 29.39375Q128.01875 30.378124 128.01875 32.3625ZM137.8625 37.55L137.8625 27.175L139.44063 27.175L139.44063 28.628124Q139.925 27.878124 140.7375 27.409374Q141.55 26.940624 142.58125 26.940624Q143.7375 26.940624 144.47188 27.425Q145.20625 27.89375 145.51875 28.753124Q146.75313 26.940624 148.72188 26.940624Q150.26875 26.940624 151.09688 27.8Q151.925 28.659374 151.925 30.425L151.925 37.55L150.175 37.55L150.175 31.01875Q150.175 29.95625 150.00313 29.503124Q149.83125 29.034374 149.37813 28.753124Q148.94063 28.471874 148.33125 28.471874Q147.2375 28.471874 146.50313 29.20625Q145.78438 29.925 145.78438 31.51875L145.78438 37.55L144.03438 37.55L144.03438 30.815624Q144.03438 29.64375 143.59688 29.065624Q143.175 28.471874 142.19063 28.471874Q141.45625 28.471874 140.81563 28.8625Q140.19063 29.253124 139.90938 30.003124Q139.62813 30.753124 139.62813 32.175L139.62813 37.55L137.8625 37.55ZM153.8625 37.55L153.8625 27.175L155.44063 27.175L155.44063 28.628124Q155.925 27.878124 156.7375 27.409374Q157.55 26.940624 158.58125 26.940624Q159.7375 26.940624 160.47188 27.425Q161.20625 27.89375 161.51875 28.753124Q162.75313 26.940624 164.72188 26.940624Q166.26875 26.940624 167.09688 27.8Q167.925 28.659374 167.925 30.425L167.925 37.55L166.175 37.55L166.175 31.01875Q166.175 29.95625 166.00313 29.503124Q165.83125 29.034374 165.37813 28.753124Q164.94063 28.471874 164.33125 28.471874Q163.2375 28.471874 162.50313 29.20625Q161.78438 29.925 161.78438 31.51875L161.78438 37.55L160.03438 37.55L160.03438 30.815624Q160.03438 29.64375 159.59688 29.065624Q159.175 28.471874 158.19063 28.471874Q157.45625 28.471874 156.81563 28.8625Q156.19063 29.253124 155.90938 30.003124Q155.62813 30.753124 155.62813 32.175L155.62813 37.55L153.8625 37.55ZM169.87813 25.253124L169.87813 23.2375L171.64375 23.2375L171.64375 25.253124L169.87813 25.253124ZM169.87813 37.55L169.87813 27.175L171.64375 27.175L171.64375 37.55L169.87813 37.55ZM177.70625 35.971874L177.95625 37.534374Q177.22188 37.690624 176.62813 37.690624Q175.675 37.690624 175.14375 37.39375Q174.62813 37.08125 174.40938 36.596874Q174.19063 36.096874 174.19063 34.51875L174.19063 28.55L172.90938 28.55L172.90938 27.175L174.19063 27.175L174.19063 24.6125L175.94063 23.55L175.94063 27.175L177.70625 27.175L177.70625 28.55L175.94063 28.55L175.94063 34.6125Q175.94063 35.3625 176.03438 35.58125Q176.12813 35.784374 176.33125 35.925Q176.55 36.05 176.94063 36.05Q177.22188 36.05 177.70625 35.971874ZM179.15938 34.45625L180.90938 34.175Q181.05 35.221874 181.72188 35.784374Q182.39375 36.33125 183.59688 36.33125Q184.8 36.33125 185.37813 35.846874Q185.97188 35.346874 185.97188 34.690624Q185.97188 34.096874 185.45625 33.753124Q185.09688 33.51875 183.65938 33.159374Q181.72188 32.659374 180.97188 32.315624Q180.2375 31.95625 179.84688 31.33125Q179.45625 30.690624 179.45625 29.925Q179.45625 29.2375 179.76875 28.64375Q180.09688 28.05 180.64375 27.659374Q181.05 27.3625 181.75313 27.159374Q182.47188 26.940624 183.28438 26.940624Q184.50313 26.940624 185.425 27.3Q186.34688 27.64375 186.78438 28.253124Q187.22188 28.846874 187.39375 29.846874L185.675 30.08125Q185.55 29.284374 184.9875 28.846874Q184.425 28.39375 183.40938 28.39375Q182.19063 28.39375 181.675 28.8Q181.15938 29.190624 181.15938 29.721874Q181.15938 30.065624 181.37813 30.346874Q181.58125 30.628124 182.05 30.815624Q182.31563 30.909374 183.59688 31.253124Q185.47188 31.753124 186.20625 32.08125Q186.94063 32.39375 187.3625 33.003124Q187.78438 33.596874 187.78438 34.503124Q187.78438 35.378124 187.26875 36.159374Q186.75313 36.940624 185.78438 37.3625Q184.81563 37.784374 183.59688 37.784374Q181.58125 37.784374 180.51875 36.940624Q179.45625 36.096874 179.15938 34.45625ZM195.8625 41.51875L195.8625 27.175L197.47188 27.175L197.47188 28.51875Q198.03438 27.7375 198.7375 27.346874Q199.45625 26.940624 200.47188 26.940624Q201.8 26.940624 202.81563 27.628124Q203.83125 28.315624 204.34688 29.565624Q204.87813 30.8 204.87813 32.284374Q204.87813 33.878124 204.3 35.159374Q203.7375 36.425 202.64375 37.1125Q201.55 37.784374 200.34688 37.784374Q199.47188 37.784374 198.76875 37.409374Q198.08125 37.034374 197.62813 36.471874L197.62813 41.51875L195.8625 41.51875ZM197.45625 32.425Q197.45625 34.425 198.26875 35.378124Q199.08125 36.33125 200.2375 36.33125Q201.40938 36.33125 202.2375 35.346874Q203.08125 34.3625 203.08125 32.26875Q203.08125 30.3 202.25313 29.315624Q201.44063 28.315624 200.31563 28.315624Q199.19063 28.315624 198.31563 29.378124Q197.45625 30.425 197.45625 32.425ZM213.97188 34.20625L215.78438 34.440624Q215.3625 36.01875 214.19063 36.909374Q213.03438 37.784374 211.22188 37.784374Q208.95625 37.784374 207.6125 36.39375Q206.28438 34.9875 206.28438 32.45625Q206.28438 29.83125 207.62813 28.39375Q208.97188 26.940624 211.12813 26.940624Q213.20625 26.940624 214.51875 28.3625Q215.84688 29.76875 215.84688 32.346874Q215.84688 32.503124 215.83125 32.815624L208.09688 32.815624Q208.19063 34.51875 209.06563 35.425Q209.94063 36.33125 211.2375 36.33125Q212.20625 36.33125 212.87813 35.83125Q213.56563 35.315624 213.97188 34.20625ZM208.19063 31.3625L213.9875 31.3625Q213.87813 30.065624 213.33125 29.409374Q212.4875 28.39375 211.14375 28.39375Q209.94063 28.39375 209.1125 29.20625Q208.28438 30.003124 208.19063 31.3625ZM217.84688 37.55L217.84688 27.175L219.425 27.175L219.425 28.753124Q220.03438 27.64375 220.55 27.3Q221.06563 26.940624 221.675 26.940624Q222.56563 26.940624 223.4875 27.503124L222.87813 29.14375Q222.2375 28.753124 221.59688 28.753124Q221.01875 28.753124 220.55 29.1125Q220.09688 29.45625 219.89375 30.065624Q219.6125 31.003124 219.6125 32.1125L219.6125 37.55L217.84688 37.55ZM230.8625 37.55L230.8625 27.175L232.44063 27.175L232.44063 28.628124Q232.925 27.878124 233.7375 27.409374Q234.55 26.940624 235.58125 26.940624Q236.7375 26.940624 237.47188 27.425Q238.20625 27.89375 238.51875 28.753124Q239.75313 26.940624 241.72188 26.940624Q243.26875 26.940624 244.09688 27.8Q244.925 28.659374 244.925 30.425L244.925 37.55L243.175 37.55L243.175 31.01875Q243.175 29.95625 243.00313 29.503124Q242.83125 29.034374 242.37813 28.753124Q241.94063 28.471874 241.33125 28.471874Q240.2375 28.471874 239.50313 29.20625Q238.78438 29.925 238.78438 31.51875L238.78438 37.55L237.03438 37.55L237.03438 30.815624Q237.03438 29.64375 236.59688 29.065624Q236.175 28.471874 235.19063 28.471874Q234.45625 28.471874 233.81563 28.8625Q233.19063 29.253124 232.90938 30.003124Q232.62813 30.753124 232.62813 32.175L232.62813 37.55L230.8625 37.55ZM253.97188 34.20625L255.78438 34.440624Q255.3625 36.01875 254.19063 36.909374Q253.03438 37.784374 251.22188 37.784374Q248.95625 37.784374 247.6125 36.39375Q246.28438 34.9875 246.28438 32.45625Q246.28438 29.83125 247.62813 28.39375Q248.97188 26.940624 251.12813 26.940624Q253.20625 26.940624 254.51875 28.3625Q255.84688 29.76875 255.84688 32.346874Q255.84688 32.503124 255.83125 32.815624L248.09688 32.815624Q248.19063 34.51875 249.06563 35.425Q249.94063 36.33125 251.2375 36.33125Q252.20625 36.33125 252.87813 35.83125Q253.56563 35.315624 253.97188 34.20625ZM248.19063 31.3625L253.9875 31.3625Q253.87813 30.065624 253.33125 29.409374Q252.4875 28.39375 251.14375 28.39375Q249.94063 28.39375 249.1125 29.20625Q248.28438 30.003124 248.19063 31.3625ZM257.8625 37.55L257.8625 27.175L259.4406 27.175L259.4406 28.628124Q259.925 27.878124 260.7375 27.409374Q261.55 26.940624 262.58124 26.940624Q263.7375 26.940624 264.47186 27.425Q265.20624 27.89375 265.51874 28.753124Q266.7531 26.940624 268.72186 26.940624Q270.26874 26.940624 271.09686 27.8Q271.925 28.659374 271.925 30.425L271.925 37.55L270.175 37.55L270.175 31.01875Q270.175 29.95625 270.0031 29.503124Q269.83124 29.034374 269.3781 28.753124Q268.9406 28.471874 268.33124 28.471874Q267.2375 28.471874 266.5031 29.20625Q265.78436 29.925 265.78436 31.51875L265.78436 37.55L264.03436 37.55L264.03436 30.815624Q264.03436 29.64375 263.59686 29.065624Q263.175 28.471874 262.1906 28.471874Q261.45624 28.471874 260.8156 28.8625Q260.1906 29.253124 259.90936 30.003124Q259.6281 30.753124 259.6281 32.175L259.6281 37.55L257.8625 37.55ZM275.4875 37.55L273.8625 37.55L273.8625 23.2375L275.6125 23.2375L275.6125 28.346874Q276.7375 26.940624 278.45624 26.940624Q279.40936 26.940624 280.26874 27.33125Q281.1281 27.721874 281.675 28.425Q282.22186 29.1125 282.53436 30.096874Q282.84686 31.08125 282.84686 32.20625Q282.84686 34.878124 281.53436 36.33125Q280.22186 37.784374 278.3781 37.784374Q276.53436 37.784374 275.4875 36.253124L275.4875 37.55ZM275.47186 32.284374Q275.47186 34.14375 275.97186 34.9875Q276.8156 36.33125 278.22186 36.33125Q279.3781 36.33125 280.20624 35.33125Q281.05 34.33125 281.05 32.346874Q281.05 30.315624 280.2375 29.3625Q279.4406 28.39375 278.3 28.39375Q277.14374 28.39375 276.3 29.39375Q275.47186 30.39375 275.47186 32.284374ZM291.97186 34.20625L293.78436 34.440624Q293.3625 36.01875 292.1906 36.909374Q291.03436 37.784374 289.22186 37.784374Q286.95624 37.784374 285.6125 36.39375Q284.28436 34.9875 284.28436 32.45625Q284.28436 29.83125 285.6281 28.39375Q286.97186 26.940624 289.1281 26.940624Q291.20624 26.940624 292.51874 28.3625Q293.84686 29.76875 293.84686 32.346874Q293.84686 32.503124 293.83124 32.815624L286.09686 32.815624Q286.1906 34.51875 287.0656 35.425Q287.9406 36.33125 289.2375 36.33125Q290.20624 36.33125 290.8781 35.83125Q291.5656 35.315624 291.97186 34.20625ZM286.1906 31.3625L291.9875 31.3625Q291.8781 30.065624 291.33124 29.409374Q290.4875 28.39375 289.14374 28.39375Q287.9406 28.39375 287.1125 29.20625Q286.28436 30.003124 286.1906 31.3625ZM295.84686 37.55L295.84686 27.175L297.425 27.175L297.425 28.753124Q298.03436 27.64375 298.55 27.3Q299.0656 26.940624 299.675 26.940624Q300.5656 26.940624 301.4875 27.503124L300.8781 29.14375Q300.2375 28.753124 299.59686 28.753124Q299.01874 28.753124 298.55 29.1125Q298.09686 29.45625 297.89374 30.065624Q297.6125 31.003124 297.6125 32.1125L297.6125 37.55L295.84686 37.55Z" fill-rule="nonzero"/></svg>